<?xml version="1.0" encoding="utf-8"?>
<!-- Generator: Adobe Illustrator 17.1.0, SVG Export Plug-In . SVG Version: 6.00 Build 0)  -->
<!DOCTYPE svg PUBLIC "-//W3C//DTD SVG 1.1//EN" "http://www.w3.org/Graphics/SVG/1.1/DTD/svg11.dtd">
<svg version="1.1" id="Layer_1" xmlns="http://www.w3.org/2000/svg" xmlns:xlink="http://www.w3.org/1999/xlink" x="0px" y="0px"
	 viewBox="0 0 612 792" enable-background="new 0 0 612 792" xml:space="preserve">
<g>
	<path fill="#ffffff" d="M605.5,666.1L422.9,483.5c35-41.7,56.2-95.1,56.2-152.8c0-130.7-108.9-239.6-239.6-239.6S0,200,0,330.7
		s108.9,239.6,239.6,239.6c56.6,0,109.1-20.5,150.5-54.3l180.6,180.6c4.4,4.4,8.7,4.4,17.4,4.4s13.1,0,17.4-4.4
		C614.2,687.8,614.2,674.8,605.5,666.1L605.5,666.1z M239.6,526.7c-108.9,0-196-87.1-196-196s87.1-196,196-196s196,87.1,196,196
		S348.5,526.7,239.6,526.7L239.6,526.7z"/>
</g>
</svg>
